inDegrees=no
num_controls=7
num_derivatives=13
num_iterations=138
num_multipliers=7
num_parameters=0
num_slacks=7
num_states=26
objective=5.803188
objective_accelerations=0.666878
objective_balance=0.087765
objective_effort=0.499782
objective_height=4.528204
objective_ligament=0.020560
solver_duration=1535.502084
status=Solve_Succeeded
success=true
DataType=double
version=3
OpenSimVersion=4.4-2022-07-23-0e9fedc
endheader
time	/jointset/ground_pelvis/pelvis_tilt/value	/jointset/ground_pelvis/pelvis_tx/value	/jointset/ground_pelvis/pelvis_ty/value	/jointset/hip_l/hip_flexion_l/value	/jointset/hip_l/hip_adduction_l/value	/jointset/hip_l/hip_rotation_l/value	/jointset/back/lumbar_extension/value	/jointset/patellofemoral_l/patellar_flexion_l/value	/jointset/knee_l/knee_flexion_l/value	/jointset/knee_l/knee_adduction_l/value	/jointset/knee_l/knee_rotation_l/value	/jointset/ankle_l/ankle_angle_l/value	/jointset/subtalar_l/subtalar_angle_l/value	/jointset/ground_pelvis/pelvis_tilt/speed	/jointset/ground_pelvis/pelvis_tx/speed	/jointset/ground_pelvis/pelvis_ty/speed	/jointset/hip_l/hip_flexion_l/speed	/jointset/hip_l/hip_adduction_l/speed	/jointset/hip_l/hip_rotation_l/speed	/jointset/back/lumbar_extension/speed	/jointset/patellofemoral_l/patellar_flexion_l/speed	/jointset/knee_l/knee_flexion_l/speed	/jointset/knee_l/knee_adduction_l/speed	/jointset/knee_l/knee_rotation_l/speed	/jointset/ankle_l/ankle_angle_l/speed	/jointset/subtalar_l/subtalar_angle_l/speed	/forceset/tau_hip_flexion_l	/forceset/tau_hip_adduction_l	/forceset/tau_hip_rotation_l	/forceset/tau_knee_flexion_l	/forceset/tau_ankle_angle_l	/forceset/tau_subtalar_angle_l	/forceset/tau_lumbar_extension	lambda_cid13_p0	lambda_cid13_p1	lambda_cid13_p2	lambda_cid13_p3	lambda_cid13_p4	lambda_cid13_p5	lambda_cid14_p0	/jointset/ground_pelvis/pelvis_tilt/accel	/jointset/ground_pelvis/pelvis_tx/accel	/jointset/ground_pelvis/pelvis_ty/accel	/jointset/hip_l/hip_flexion_l/accel	/jointset/hip_l/hip_adduction_l/accel	/jointset/hip_l/hip_rotation_l/accel	/jointset/back/lumbar_extension/accel	/jointset/patellofemoral_l/patellar_flexion_l/accel	/jointset/knee_l/knee_flexion_l/accel	/jointset/knee_l/knee_adduction_l/accel	/jointset/knee_l/knee_rotation_l/accel	/jointset/ankle_l/ankle_angle_l/accel	/jointset/subtalar_l/subtalar_angle_l/accel	gamma_cid13_p0	gamma_cid13_p1	gamma_cid13_p2	gamma_cid13_p3	gamma_cid13_p4	gamma_cid13_p5	gamma_cid14_p0
1	-0.7573871232719939	-0.1691910436915295	0.5732725538876764	2.094394740740075	-0.3026509541557888	0.1162384284072823	-0.436330404804057	1.155743651578119	1.15574365157744	-0.1745108879636918	0.1745244750423403	0.006152264231011092	-0.05345470868729595	-0.01040841707861288	0.001022111185508794	-0.002992887331585405	0.01596189524353503	0.0007763318557817122	0.0034274880769258	-0.0001344606595107307	0.008597849222930845	0.008597849222924718	1.425364716794239e-05	-3.713197553271691e-05	0.00377345770825602	0.001438839109477723	-0.4934894499909955	-0.005705637009669974	-0.01700526377130671	-0.2147469727388099	0.1869307597655174	0.03395127878062793	0.3814530046890066	12.8523786150872	-16.71643521407746	1.943994557272291	4.91790890216973	-735.502941823847	-42.93659027926054	-1.843762214732335	2.134007635814988	0.3421971560194658	1.75503494080818	-6.651259885135965	-0.3201881589777111	-1.657371355484451	-0.009987225373483486	-4.468140544051939	-4.468140544052026	-0.03750409668460467	0.01402350735882704	-0.2140336670470163	-0.3141333501597044	7.787734962610817e-10	3.063925827833684e-09	-5.175875472436494e-09	1.501854184513816e-10	7.828674062793615e-10	-2.600197476472719e-09	1.347680167073899e-09
1.01	-0.7573852272330457	-0.1691637562055535	0.5733303109111421	2.094222588005239	-0.302658353857873	0.1161891709122203	-0.4363313371578139	1.155606283627788	1.15560628362724	-0.1745107792957015	0.1745241663189441	0.006179496207384277	-0.0534551294595566	0.01079842960611574	0.004440115493384428	0.01454642481557182	-0.05040853622186024	-0.002255633141950595	-0.01327971931152123	-5.145215955038162e-05	-0.03607289941196085	-0.0360728994119641	6.693673374642503e-06	-2.239682094922226e-05	0.001676525987379417	-0.001521607269569332	-0.4935602934075706	-0.005679997550243092	-0.01701391266246727	-0.2147443355977491	0.1870072007905723	0.03398544101365133	0.3815470050167983	12.87619382049772	-16.73645339826124	1.948341446058125	4.833253969221645	-735.574201071969	-42.97174615794785	-1.847747660450971	2.11564355199543	0.3423120179283515	1.753698225221774	-6.632349337422047	-0.294605807735302	-1.677508715459925	0.01752858226091834	-4.46676026107362	-4.466760261073347	0.01749839511514157	-0.004473081042569984	-0.2069845242532184	-0.2867933035642323	-2.751255259083513e-09	-4.939161012304478e-09	1.487134994207822e-08	2.609414513550274e-09	-5.166088174059035e-09	1.976118124516928e-08	-3.849559252611765e-09
1.02	-0.7571709386537755	-0.1691021466865473	0.5735635248307906	2.093386248043654	-0.3026960542374402	0.1159728186862945	-0.4363314226878694	1.155022164543527	1.155022164543139	-0.1745107701588593	0.1745240706267568	0.006185866546622855	-0.05348511329996516	0.03207009097853903	0.007886517791562237	0.03209849190503918	-0.1168755500944926	-0.005283803642264138	-0.02999145809736098	3.490412361775437e-05	-0.08075237756146926	-0.08075237756146927	-5.652586738381479e-06	5.474311603342218e-06	-0.0003988697192947585	-0.004473774520090348	-0.4936311368242899	-0.005654358090801286	-0.01702256155355266	-0.2147416984566242	0.1870836418156766	0.03401960324669915	0.3816410053444027	12.89578036432442	-16.75628595941777	1.953292664001528	4.752555687494911	-735.7060099063009	-42.97941979919986	-1.864703993084905	2.146970573353765	0.3478767540800259	1.757585929270262	-6.670576366583459	-0.3194292594940581	-1.658277634963102	-0.009317668731386813	-4.469886446975273	-4.469886446975287	-0.03846135394861192	0.01665070295283599	-0.2097264642063153	-0.3124775244545547	-5.18589956943697e-09	-1.229786106964143e-08	3.583223584775191e-08	2.55541719043251e-09	-9.842525419489791e-09	4.153664961316549e-08	-9.089895351230505e-09
1.03	-0.7567435670387583	-0.1690059031226263	0.5739722618334629	2.091884854453618	-0.3027639470759864	0.1155894244032538	-0.4363306550259126	1.153991303342537	1.153991303342734	-0.1745109136573882	0.1745242742774516	0.006171557593495454	-0.05354451313744046	0.05341981426746222	0.0113697841782938	0.04964498898493921	-0.1834099054567303	-0.008286617602806298	-0.04667922969498525	0.0001159268923447608	-0.1254114931930938	-0.125411493193093	-2.281407701069652e-05	3.291715344310581e-05	-0.002462275700535011	-0.007397829036860003	-0.4933361393677752	-0.005568994209170072	-0.01704926682646229	-0.2147207417379676	0.187197840963672	0.03413332660369371	0.3815235124046233	12.94800662649145	-16.81815590850509	1.966966207404991	4.62099900057161	-735.5538255895405	-43.06894075259929	-1.894871596561311	2.13130914700781	0.3496904535399851	1.752590721341898	-6.645877471050083	-0.2894904324654733	-1.67281366427188	0.01640704461801367	-4.462665807048261	-4.462665807048286	0.01668585770223266	-0.004574411177796864	-0.2045499434417237	-0.2811184564686261	-7.609366487494594e-09	-1.964998575164368e-08	5.680244481966192e-08	2.475774699781909e-09	-1.450597778395209e-08	6.330613930408369e-08	-1.433067121187917e-08
1.04	-0.7561022310027505	-0.1688745991203238	0.5745563456317335	2.089717914839953	-0.3028616246477576	0.115039395055818	-0.4363291581774604	1.152514102648066	1.152514102648869	-0.1745112228899494	0.1745246792591832	0.006136634124886695	-0.05363290332831962	0.07486297517019054	0.01489860546788647	0.06716785102471381	-0.2499847548192191	-0.01124075028859949	-0.06331847097698842	0.0001807414587948508	-0.1700202762563942	-0.1700202762563921	-3.87993965243362e-05	4.574055618068906e-05	-0.004521772816120184	-0.01027184520083923	-0.4930411419113674	-0.005483630327527377	-0.01707597209932517	-0.2146997850192608	0.1873120401117045	0.0342470499607069	0.3814060194647036	12.99599334169538	-16.87987942097189	1.981297261363702	4.492842124601447	-735.4626206480892	-43.13141474210555	-1.93854148999011	2.165658096114783	0.3569877346522658	1.75285892124522	-6.678675166633766	-0.309693004544053	-1.648571571838642	-0.01255930918728016	-4.459819933310566	-4.459819933310468	-0.03822611979678815	0.01372681513201102	-0.2089446910752114	-0.3024698538962384	-9.848954519584919e-09	-2.779143802769553e-08	7.563962260935088e-08	1.716285381146855e-09	-1.897379954254185e-08	8.399974693801314e-08	-1.950990533162108e-08
1.05	-0.7552459306559063	-0.1687077534285766	0.5753154741240963	2.086885113752074	-0.3029885904757244	0.1143232374286951	-0.4363272006587467	1.150591176892086	1.150591176892199	-0.1745117122001894	0.1745252071881345	0.006081081270005346	-0.05374978499277748	0.09641953273005995	0.01848069944473816	0.08464743779218267	-0.3165736453989891	-0.01414183076606407	-0.07990481403822995	0.0001971119868907042	-0.2145450555222194	-0.2145450555222159	-5.74630320400018e-05	6.34951004991641e-05	-0.006592792369499002	-0.01309462763574076	-0.4923057268481379	-0.005339477972294686	-0.01712275833204854	-0.2146794327384103	0.1874804940546125	0.03442131294312133	0.3810139314739588	13.08415618102767	-16.97692799389203	2.003542248800819	4.317048916820643	-735.0375143448824	-43.26480792677464	-1.996236250692979	2.154017874490284	0.3603453927567403	1.743942374067177	-6.648726410141436	-0.2787359551328255	-1.662450215390786	0.006687686709367709	-4.445829021321983	-4.445829021321687	0.01654369883122827	-0.003677283874402027	-0.2067781308590714	-0.2707089414371076	-1.208279633648876e-08	-3.595755679106143e-08	9.441014317459549e-08	9.355508491372914e-10	-2.34355078446981e-08	1.046597332576617e-07	-2.468721627195965e-08
1.06	-0.7541733920757423	-0.168504781764349	0.5762490852480481	2.083386477677115	-0.3031442511856193	0.1134414594625396	-0.4363254889442184	1.148223598923824	1.14822359892324	-0.174512342109922	0.1745260172508552	0.006004698710913569	-0.05389459978221464	0.1181106218326073	0.02212379996396484	0.1020643773425178	-0.3831517522384567	-0.01697972667493851	-0.09644253878442091	0.0001315806310363366	-0.2589507187121866	-0.2589507187121803	-6.691929714050319e-05	0.0001021673265602346	-0.00868771365847241	-0.01585847019663603	-0.4915703117848668	-0.005195325617027275	-0.01716954456471646	-0.214659080457573	0.1876489479975182	0.03459557592557067	0.3806218434832569	13.16805236577599	-17.07390739675527	2.02655073833395	4.143956407331035	-734.6740456014587	-43.37217935046769	-2.068534011280249	2.192564404650401	0.3691890431272165	1.740329477818515	-6.676518418573339	-0.2970560908256163	-1.638847908828077	-0.02893968597846902	-4.435996718139126	-4.43599671813878	-0.03638464571356578	0.01791035147977854	-0.2137250381941211	-0.290681879094575	-1.429257056334525e-08	-4.260393099624313e-08	1.123414194152542e-07	1.030503407062518e-09	-2.768128389639951e-08	1.225510041095519e-07	-2.913784932925506e-08
1.07	-0.7528833524724342	-0.1682650622247543	0.5773564841179958	2.079222317563045	-0.3033279098477402	0.1123946910159982	-0.436324689922128	1.145412596033018	1.145412596032831	-0.1745130806361457	0.1745272371150267	0.005907176117126197	-0.0540667066985573	0.1399113162701987	0.0258314079959494	0.1193982180352004	-0.4496581537098223	-0.01973275997096352	-0.1128920309634248	2.997520210935089e-05	-0.3032261113069142	-0.3032261113069074	-7.895593268765955e-05	0.0001361638457378117	-0.01082697360215146	-0.01854550463999033	-0.4905258167475884	-0.004971736133475537	-0.01723054652744563	-0.2145875125780927	0.1877797332087413	0.03484873222582419	0.3800660012819433	13.25795396078665	-17.20785619555977	2.057342816230316	3.95181261033472	-734.055005883284	-43.55138281084513	-2.156248370337055	2.175921178469425	0.3732419256350603	1.727328130324727	-6.634387588960253	-0.2615514131365406	-1.64515996727744	-0.0005082637927255277	-4.419741536963391	-4.419741536963326	0.01664833265581859	-0.004735584247094836	-0.2155495206621369	-0.2551106477833675	-1.650106459924178e-08	-4.916946772492565e-08	1.302280550003499e-07	1.172035065516198e-09	-3.191557419009801e-08	1.402950028620931e-07	-3.35498293076652e-08
1.08	-0.75137488608173	-0.1679879275563584	0.5786367047479368	2.074393756118749	-0.3035385237356485	0.1111839956286909	-0.4363248544126797	1.142159553014898	1.142159553015117	-0.1745138872277067	0.1745286209671348	0.005787956314260498	-0.05426516324349948	0.1617959793140268	0.02960682572419646	0.13662872934119	-0.5160320182828476	-0.02237077183281338	-0.1292279269360671	-6.112192452385632e-05	-0.3473587441746009	-0.3473587441745967	-8.05323629865273e-05	0.0001349649095582789	-0.01302715547412836	-0.02112839591644475	-0.4894813217103063	-0.004748146649912455	-0.01729154849013454	-0.2145159446986228	0.1879105184199603	0.03510188852608844	0.3795101590806293	13.34352628420029	-17.34182595223256	2.089028222301584	3.761690732730748	-733.4987351376432	-43.70607414310553	-2.260250146050142	2.209358125897723	0.3827509823796655	1.719663600479976	-6.650011038905363	-0.274051803990133	-1.616128667555239	-0.02683802552064893	-4.407444772731111	-4.407444772731391	-0.03429260466369315	0.01087126040752047	-0.2259094238536727	-0.2698532457141398	-1.810794001552428e-08	-5.600244493656213e-08	1.442686109869801e-07	-7.892104918964351e-11	-3.530394770888841e-08	1.550997471825497e-07	-3.751159749131994e-08
